<mxfile host="app.diagrams.net" modified="2023-04-29T00:50:49.219Z" agent="Mozilla/5.0 (Windows NT 10.0; Win64; x64) AppleWebKit/537.36 (KHTML, like Gecko) Chrome/99.0.4844.51 Safari/537.36" etag="BpJQgHGN2wql9NTU14C3" version="21.2.3" type="github">
  <diagram id="C5RBs43oDa-KdzZeNtuy" name="Page-1">
    <mxGraphModel dx="1434" dy="764" grid="1" gridSize="10" guides="1" tooltips="1" connect="1" arrows="1" fold="1" page="1" pageScale="1" pageWidth="827" pageHeight="1169" math="0" shadow="0">
      <root>
        <mxCell id="WIyWlLk6GJQsqaUBKTNV-0" />
        <mxCell id="WIyWlLk6GJQsqaUBKTNV-1" parent="WIyWlLk6GJQsqaUBKTNV-0" />
        <mxCell id="WIyWlLk6GJQsqaUBKTNV-3" value="门诊总额预算政策" style="rounded=1;whiteSpace=wrap;html=1;fontSize=12;glass=0;strokeWidth=1;shadow=0;" parent="WIyWlLk6GJQsqaUBKTNV-1" vertex="1">
          <mxGeometry x="310" y="70" width="120" height="40" as="geometry" />
        </mxCell>
        <mxCell id="cMIVOVH_l857w3aFStGh-6" value="" style="group" vertex="1" connectable="0" parent="WIyWlLk6GJQsqaUBKTNV-1">
          <mxGeometry x="210" y="110" width="320" height="90" as="geometry" />
        </mxCell>
        <mxCell id="cMIVOVH_l857w3aFStGh-1" value="" style="endArrow=none;html=1;rounded=0;" edge="1" parent="cMIVOVH_l857w3aFStGh-6">
          <mxGeometry width="50" height="50" relative="1" as="geometry">
            <mxPoint x="160" y="40" as="sourcePoint" />
            <mxPoint x="160" as="targetPoint" />
          </mxGeometry>
        </mxCell>
        <mxCell id="cMIVOVH_l857w3aFStGh-2" value="" style="endArrow=none;html=1;rounded=0;" edge="1" parent="cMIVOVH_l857w3aFStGh-6">
          <mxGeometry width="50" height="50" relative="1" as="geometry">
            <mxPoint x="0.3628117913832199" y="40" as="sourcePoint" />
            <mxPoint x="319.63718820861675" y="40" as="targetPoint" />
          </mxGeometry>
        </mxCell>
        <mxCell id="cMIVOVH_l857w3aFStGh-4" value="" style="endArrow=classic;html=1;rounded=0;" edge="1" parent="cMIVOVH_l857w3aFStGh-6">
          <mxGeometry width="50" height="50" relative="1" as="geometry">
            <mxPoint y="40" as="sourcePoint" />
            <mxPoint x="0.3628117913832199" y="90" as="targetPoint" />
          </mxGeometry>
        </mxCell>
        <mxCell id="cMIVOVH_l857w3aFStGh-5" value="" style="endArrow=classic;html=1;rounded=0;" edge="1" parent="cMIVOVH_l857w3aFStGh-6">
          <mxGeometry width="50" height="50" relative="1" as="geometry">
            <mxPoint x="319.63718820861675" y="40" as="sourcePoint" />
            <mxPoint x="320" y="90" as="targetPoint" />
          </mxGeometry>
        </mxCell>
        <mxCell id="cMIVOVH_l857w3aFStGh-28" value="" style="endArrow=classic;html=1;rounded=0;" edge="1" parent="cMIVOVH_l857w3aFStGh-6">
          <mxGeometry width="50" height="50" relative="1" as="geometry">
            <mxPoint x="160.49718820861676" y="40" as="sourcePoint" />
            <mxPoint x="160.86" y="90" as="targetPoint" />
          </mxGeometry>
        </mxCell>
        <mxCell id="cMIVOVH_l857w3aFStGh-7" value="信&lt;br style=&quot;font-size: 20px;&quot;&gt;息&lt;br style=&quot;font-size: 20px;&quot;&gt;科" style="rounded=0;whiteSpace=wrap;html=1;fontSize=20;" vertex="1" parent="WIyWlLk6GJQsqaUBKTNV-1">
          <mxGeometry x="501" y="200" width="60" height="100" as="geometry" />
        </mxCell>
        <mxCell id="cMIVOVH_l857w3aFStGh-8" value="医&lt;br&gt;保&lt;br&gt;办" style="rounded=0;whiteSpace=wrap;html=1;fontSize=20;" vertex="1" parent="WIyWlLk6GJQsqaUBKTNV-1">
          <mxGeometry x="341" y="200" width="60" height="100" as="geometry" />
        </mxCell>
        <mxCell id="cMIVOVH_l857w3aFStGh-12" value="" style="group" vertex="1" connectable="0" parent="WIyWlLk6GJQsqaUBKTNV-1">
          <mxGeometry x="491" y="300" width="80" height="100" as="geometry" />
        </mxCell>
        <mxCell id="cMIVOVH_l857w3aFStGh-10" value="" style="endArrow=classic;html=1;rounded=0;" edge="1" parent="cMIVOVH_l857w3aFStGh-12">
          <mxGeometry width="50" height="50" relative="1" as="geometry">
            <mxPoint x="40" as="sourcePoint" />
            <mxPoint x="40" y="40" as="targetPoint" />
          </mxGeometry>
        </mxCell>
        <mxCell id="cMIVOVH_l857w3aFStGh-11" value="制作门诊基金统计小程序/国谈统计小程序" style="rounded=1;whiteSpace=wrap;html=1;" vertex="1" parent="cMIVOVH_l857w3aFStGh-12">
          <mxGeometry y="40" width="80" height="60" as="geometry" />
        </mxCell>
        <mxCell id="cMIVOVH_l857w3aFStGh-13" value="" style="group" vertex="1" connectable="0" parent="WIyWlLk6GJQsqaUBKTNV-1">
          <mxGeometry x="331" y="300" width="80" height="100" as="geometry" />
        </mxCell>
        <mxCell id="cMIVOVH_l857w3aFStGh-14" value="" style="endArrow=classic;html=1;rounded=0;" edge="1" parent="cMIVOVH_l857w3aFStGh-13">
          <mxGeometry width="50" height="50" relative="1" as="geometry">
            <mxPoint x="40" as="sourcePoint" />
            <mxPoint x="40" y="40" as="targetPoint" />
          </mxGeometry>
        </mxCell>
        <mxCell id="cMIVOVH_l857w3aFStGh-15" value="验证小程序数据准确性" style="rounded=1;whiteSpace=wrap;html=1;" vertex="1" parent="cMIVOVH_l857w3aFStGh-13">
          <mxGeometry y="40" width="80" height="60" as="geometry" />
        </mxCell>
        <mxCell id="cMIVOVH_l857w3aFStGh-16" value="" style="endArrow=classic;html=1;rounded=0;entryX=1;entryY=0.75;entryDx=0;entryDy=0;exitX=0;exitY=0.75;exitDx=0;exitDy=0;" edge="1" parent="WIyWlLk6GJQsqaUBKTNV-1">
          <mxGeometry width="50" height="50" relative="1" as="geometry">
            <mxPoint x="491" y="370" as="sourcePoint" />
            <mxPoint x="411" y="370" as="targetPoint" />
          </mxGeometry>
        </mxCell>
        <mxCell id="cMIVOVH_l857w3aFStGh-17" value="药&lt;br&gt;剂&lt;br&gt;科" style="rounded=0;whiteSpace=wrap;html=1;fontSize=20;" vertex="1" parent="WIyWlLk6GJQsqaUBKTNV-1">
          <mxGeometry x="181" y="200" width="60" height="100" as="geometry" />
        </mxCell>
        <mxCell id="cMIVOVH_l857w3aFStGh-18" value="" style="group" vertex="1" connectable="0" parent="WIyWlLk6GJQsqaUBKTNV-1">
          <mxGeometry x="171" y="300" width="80" height="100" as="geometry" />
        </mxCell>
        <mxCell id="cMIVOVH_l857w3aFStGh-19" value="" style="endArrow=classic;html=1;rounded=0;" edge="1" parent="cMIVOVH_l857w3aFStGh-18">
          <mxGeometry width="50" height="50" relative="1" as="geometry">
            <mxPoint x="40" as="sourcePoint" />
            <mxPoint x="40" y="40" as="targetPoint" />
          </mxGeometry>
        </mxCell>
        <mxCell id="cMIVOVH_l857w3aFStGh-20" value="月初上报国谈药品余额&lt;br&gt;" style="rounded=1;whiteSpace=wrap;html=1;" vertex="1" parent="cMIVOVH_l857w3aFStGh-18">
          <mxGeometry y="40" width="80" height="60" as="geometry" />
        </mxCell>
        <mxCell id="cMIVOVH_l857w3aFStGh-21" value="" style="group" vertex="1" connectable="0" parent="WIyWlLk6GJQsqaUBKTNV-1">
          <mxGeometry x="300" y="400" width="140" height="100" as="geometry" />
        </mxCell>
        <mxCell id="cMIVOVH_l857w3aFStGh-22" value="" style="endArrow=classic;html=1;rounded=0;" edge="1" parent="cMIVOVH_l857w3aFStGh-21">
          <mxGeometry width="50" height="50" relative="1" as="geometry">
            <mxPoint x="70" as="sourcePoint" />
            <mxPoint x="70" y="40" as="targetPoint" />
          </mxGeometry>
        </mxCell>
        <mxCell id="cMIVOVH_l857w3aFStGh-23" value="月初统计门诊基金余额，并上报两定机构平台" style="rounded=1;whiteSpace=wrap;html=1;" vertex="1" parent="cMIVOVH_l857w3aFStGh-21">
          <mxGeometry y="40" width="140" height="60" as="geometry" />
        </mxCell>
        <mxCell id="cMIVOVH_l857w3aFStGh-24" value="" style="endArrow=classic;html=1;rounded=0;" edge="1" parent="WIyWlLk6GJQsqaUBKTNV-1">
          <mxGeometry width="50" height="50" relative="1" as="geometry">
            <mxPoint x="250" y="370" as="sourcePoint" />
            <mxPoint x="330" y="370" as="targetPoint" />
          </mxGeometry>
        </mxCell>
        <mxCell id="cMIVOVH_l857w3aFStGh-25" value="" style="group" vertex="1" connectable="0" parent="WIyWlLk6GJQsqaUBKTNV-1">
          <mxGeometry x="321" y="500" width="110" height="100" as="geometry" />
        </mxCell>
        <mxCell id="cMIVOVH_l857w3aFStGh-26" value="" style="endArrow=classic;html=1;rounded=0;" edge="1" parent="cMIVOVH_l857w3aFStGh-25">
          <mxGeometry width="50" height="50" relative="1" as="geometry">
            <mxPoint x="55" as="sourcePoint" />
            <mxPoint x="55" y="40" as="targetPoint" />
          </mxGeometry>
        </mxCell>
        <mxCell id="cMIVOVH_l857w3aFStGh-27" value="上报院长，控制不合理增长" style="rounded=1;whiteSpace=wrap;html=1;" vertex="1" parent="cMIVOVH_l857w3aFStGh-25">
          <mxGeometry x="10" y="40" width="90" height="60" as="geometry" />
        </mxCell>
      </root>
    </mxGraphModel>
  </diagram>
</mxfile>
